<svg width="1241" height="639" viewBox="0 0 1241 639" fill="none" xmlns="http://www.w3.org/2000/svg">
<g clip-path="url(#clip0_954_3233)">
<rect width="299" height="538" rx="5" fill="white"/>
<rect x="313" width="928" height="639" rx="5" fill="white"/>
<rect x="101" y="34" width="94" height="94" rx="47" fill="#E5E7EB"/>
<rect x="73" y="145" width="149" height="18" fill="#E5E7EB"/>
<rect x="96" y="167" width="103" height="12" fill="#E5E7EB"/>
<rect x="36" y="214" width="16" height="16" rx="3" fill="#E5E7EB"/>
<rect x="36" y="260" width="16" height="16" rx="3" fill="#E5E7EB"/>
<rect x="36" y="306" width="16" height="16" rx="3" fill="#E5E7EB"/>
<rect x="36" y="352" width="16" height="16" rx="3" fill="#E5E7EB"/>
<rect x="36" y="398" width="16" height="16" rx="3" fill="#E5E7EB"/>
<rect x="36" y="444" width="16" height="16" rx="3" fill="#E5E7EB"/>
<rect x="36" y="490" width="16" height="16" rx="3" fill="#E5E7EB"/>
<rect x="69" y="214" width="67" height="16" rx="3" fill="#E5E7EB"/>
<rect x="69" y="260" width="102" height="16" rx="3" fill="#E5E7EB"/>
<rect x="69" y="306" width="77" height="16" rx="3" fill="#E5E7EB"/>
<rect x="69" y="352" width="123" height="16" rx="3" fill="#E5E7EB"/>
<rect x="69" y="398" width="134" height="16" rx="3" fill="#E5E7EB"/>
<rect x="69" y="444" width="59" height="16" rx="3" fill="#E5E7EB"/>
<rect x="69" y="490" width="102" height="16" rx="3" fill="#E5E7EB"/>
<rect x="359" y="47" width="275" height="161" rx="5" fill="#E5E7EB"/>
<rect x="645" y="47" width="275" height="161" rx="5" fill="#E5E7EB"/>
<rect x="930" y="47" width="275" height="161" rx="5" fill="#E5E7EB"/>
<line x1="359" y1="247.5" x2="1205" y2="247.5" stroke="#F7F7F7"/>
<rect x="358.5" y="282.5" width="275" height="98" rx="4.5" stroke="#EEEEEE"/>
<rect x="645.5" y="282.5" width="275" height="98" rx="4.5" stroke="#EEEEEE"/>
<rect x="930.5" y="282.5" width="275" height="98" rx="4.5" stroke="#EEEEEE"/>
<rect x="379" y="306" width="50" height="50" rx="5" fill="#E5E7EB"/>
<rect x="666" y="306" width="50" height="50" rx="5" fill="#E5E7EB"/>
<rect x="951" y="306" width="50" height="50" rx="5" fill="#E5E7EB"/>
<rect x="443" y="320" width="87" height="19" rx="5" fill="#E5E7EB"/>
<rect x="730" y="320" width="87" height="19" rx="5" fill="#E5E7EB"/>
<rect x="1015" y="320" width="87" height="19" rx="5" fill="#E5E7EB"/>
<rect x="576" y="317" width="36" height="25" rx="5" fill="#E5E7EB"/>
<rect x="863" y="317" width="36" height="25" rx="5" fill="#E5E7EB"/>
<rect x="1148" y="317" width="36" height="25" rx="5" fill="#E5E7EB"/>
<rect x="358" y="462" width="353" height="136" rx="5" fill="#E5E7EB"/>
<rect x="721" y="462" width="135" height="136" rx="5" fill="#E5E7EB"/>
<line x1="788.5" y1="506" x2="788.5" y2="554" stroke="#9C9C9C" stroke-width="3"/>
<line x1="764" y1="529.5" x2="812" y2="529.5" stroke="#9C9C9C" stroke-width="3"/>
</g>
<defs>
<clipPath id="clip0_954_3233">
<rect width="1241" height="639" fill="white"/>
</clipPath>
</defs>
</svg>
