<svg width="193" height="233" viewBox="0 0 193 233" fill="none" xmlns="http://www.w3.org/2000/svg">
<g clip-path="url(#clip0_1010_3940)">
<rect y="0.555664" width="193" height="193" rx="7.20149" fill="#E5E7EB"/>
<path d="M75.3571 211.059C75.4041 211.059 75.5453 211.062 75.7805 211.069C76.0225 211.069 76.3149 211.069 76.6577 211.069C77.0005 211.062 77.3567 211.062 77.7264 211.069C78.0961 211.069 78.4355 211.072 78.7447 211.079C80.5326 211.106 81.981 211.398 83.0901 211.956C84.2058 212.507 85.0225 213.311 85.54 214.366C86.0643 215.421 86.3264 216.718 86.3264 218.258C86.3264 219.871 86.0441 221.225 85.4795 222.321C84.9216 223.416 84.068 224.243 82.9187 224.801C81.776 225.359 80.3208 225.638 78.5531 225.638H75.3571V211.059ZM77.2727 212.662V224.035H78.5531C79.7563 224.035 80.7913 223.85 81.6584 223.48C82.5255 223.104 83.1909 222.495 83.6547 221.655C84.1252 220.815 84.3604 219.693 84.3604 218.288C84.3604 216.883 84.1319 215.771 83.6748 214.951C83.2245 214.131 82.5725 213.546 81.7189 213.196C80.8653 212.84 79.8369 212.662 78.6338 212.662H77.2727ZM93.0987 225.839C92.1376 225.839 91.2974 225.634 90.5782 225.224C89.859 224.808 89.3012 224.199 88.9046 223.399C88.508 222.6 88.3098 221.622 88.3098 220.466C88.3098 219.377 88.4946 218.422 88.8643 217.602C89.2339 216.782 89.775 216.147 90.4875 215.697C91.2067 215.24 92.0771 215.011 93.0987 215.011C94.0599 215.011 94.8934 215.223 95.5991 215.646C96.3116 216.063 96.8627 216.678 97.2526 217.491C97.6424 218.305 97.8373 219.296 97.8373 220.466C97.8373 221.528 97.6558 222.462 97.2929 223.268C96.9367 224.075 96.4057 224.707 95.6999 225.164C95.0009 225.614 94.1338 225.839 93.0987 225.839ZM93.0987 224.367C93.7238 224.367 94.2515 224.209 94.6816 223.893C95.1118 223.578 95.4378 223.124 95.6596 222.532C95.8814 221.941 95.9923 221.239 95.9923 220.425C95.9923 219.679 95.8948 219.01 95.6999 218.419C95.505 217.821 95.1925 217.347 94.7623 216.997C94.3388 216.648 93.7843 216.473 93.0987 216.473C92.4669 216.473 91.9326 216.631 91.4957 216.947C91.0588 217.256 90.7261 217.706 90.4976 218.298C90.2758 218.889 90.1649 219.599 90.1649 220.425C90.1649 221.158 90.2657 221.823 90.4673 222.422C90.669 223.02 90.9849 223.494 91.415 223.843C91.8452 224.193 92.4064 224.367 93.0987 224.367ZM108.129 215.213L104.368 225.638H102.674L98.9035 215.213H100.658L103.43 223.299H103.602L106.384 215.213H108.129ZM111.08 220.859C111.08 221.517 111.188 222.116 111.403 222.653C111.625 223.184 111.957 223.608 112.401 223.924C112.851 224.24 113.412 224.398 114.085 224.398C114.75 224.398 115.321 224.243 115.799 223.934C116.283 223.625 116.592 223.178 116.726 222.593H118.49C118.363 223.299 118.08 223.893 117.644 224.377C117.207 224.861 116.679 225.228 116.061 225.476C115.442 225.718 114.797 225.839 114.125 225.839C113.15 225.839 112.293 225.628 111.554 225.204C110.815 224.781 110.237 224.172 109.82 223.379C109.403 222.586 109.195 221.635 109.195 220.526C109.195 219.43 109.383 218.469 109.759 217.643C110.136 216.816 110.68 216.171 111.393 215.707C112.112 215.243 112.976 215.011 113.984 215.011C114.965 215.011 115.795 215.223 116.474 215.646C117.153 216.07 117.667 216.668 118.017 217.441C118.373 218.207 118.551 219.118 118.551 220.173V220.859H111.08ZM111.09 219.599H116.756C116.756 219 116.656 218.463 116.454 217.985C116.252 217.501 115.943 217.122 115.526 216.846C115.116 216.564 114.599 216.423 113.974 216.423C113.322 216.423 112.781 216.581 112.35 216.897C111.927 217.206 111.608 217.606 111.393 218.096C111.184 218.58 111.084 219.081 111.09 219.599Z" fill="#191C1F"/>
<rect x="50.4104" y="206.519" width="92.1791" height="21.6045" rx="4.3209" fill="#E5E7EB"/>
</g>
<defs>
<clipPath id="clip0_1010_3940">
<rect width="193" height="231.888" fill="white" transform="translate(0 0.555664)"/>
</clipPath>
</defs>
</svg>
