<svg width="928" height="639" viewBox="0 0 928 639" fill="none" xmlns="http://www.w3.org/2000/svg">
<g clip-path="url(#clip0_1121_4739)">
<rect width="928" height="639" fill="white"/>
<path d="M923 0H5C2.23858 0 0 2.23858 0 5V634C0 636.761 2.23858 639 5 639H923C925.761 639 928 636.761 928 634V5C928 2.23858 925.761 0 923 0Z" fill="white"/>
<path d="M316 47H51C48.2386 47 46 49.2386 46 52V203C46 205.761 48.2386 208 51 208H316C318.761 208 321 205.761 321 203V52C321 49.2386 318.761 47 316 47Z" fill="#E5E7EB"/>
<path d="M602 47H337C334.239 47 332 49.2386 332 52V203C332 205.761 334.239 208 337 208H602C604.761 208 607 205.761 607 203V52C607 49.2386 604.761 47 602 47Z" fill="#E5E7EB"/>
<path d="M887 47H622C619.239 47 617 49.2386 617 52V203C617 205.761 619.239 208 622 208H887C889.761 208 892 205.761 892 203V52C892 49.2386 889.761 47 887 47Z" fill="#E5E7EB"/>
<path d="M46 247.5H892" stroke="#F7F7F7"/>
<path d="M316 282.5H50C47.5147 282.5 45.5 284.515 45.5 287V376C45.5 378.485 47.5147 380.5 50 380.5H316C318.485 380.5 320.5 378.485 320.5 376V287C320.5 284.515 318.485 282.5 316 282.5Z" stroke="#EEEEEE"/>
<path d="M603 282.5H337C334.515 282.5 332.5 284.515 332.5 287V376C332.5 378.485 334.515 380.5 337 380.5H603C605.485 380.5 607.5 378.485 607.5 376V287C607.5 284.515 605.485 282.5 603 282.5Z" stroke="#EEEEEE"/>
<path d="M888 282.5H622C619.515 282.5 617.5 284.515 617.5 287V376C617.5 378.485 619.515 380.5 622 380.5H888C890.485 380.5 892.5 378.485 892.5 376V287C892.5 284.515 890.485 282.5 888 282.5Z" stroke="#EEEEEE"/>
<path d="M111 306H71C68.2386 306 66 308.239 66 311V351C66 353.761 68.2386 356 71 356H111C113.761 356 116 353.761 116 351V311C116 308.239 113.761 306 111 306Z" fill="#E5E7EB"/>
<path d="M398 306H358C355.239 306 353 308.239 353 311V351C353 353.761 355.239 356 358 356H398C400.761 356 403 353.761 403 351V311C403 308.239 400.761 306 398 306Z" fill="#E5E7EB"/>
<path d="M683 306H643C640.239 306 638 308.239 638 311V351C638 353.761 640.239 356 643 356H683C685.761 356 688 353.761 688 351V311C688 308.239 685.761 306 683 306Z" fill="#E5E7EB"/>
<path d="M212 320H135C132.239 320 130 322.239 130 325V334C130 336.761 132.239 339 135 339H212C214.761 339 217 336.761 217 334V325C217 322.239 214.761 320 212 320Z" fill="#E5E7EB"/>
<path d="M499 320H422C419.239 320 417 322.239 417 325V334C417 336.761 419.239 339 422 339H499C501.761 339 504 336.761 504 334V325C504 322.239 501.761 320 499 320Z" fill="#E5E7EB"/>
<path d="M784 320H707C704.239 320 702 322.239 702 325V334C702 336.761 704.239 339 707 339H784C786.761 339 789 336.761 789 334V325C789 322.239 786.761 320 784 320Z" fill="#E5E7EB"/>
<path d="M294 317H268C265.239 317 263 319.239 263 322V337C263 339.761 265.239 342 268 342H294C296.761 342 299 339.761 299 337V322C299 319.239 296.761 317 294 317Z" fill="#E5E7EB"/>
<path d="M581 317H555C552.239 317 550 319.239 550 322V337C550 339.761 552.239 342 555 342H581C583.761 342 586 339.761 586 337V322C586 319.239 583.761 317 581 317Z" fill="#E5E7EB"/>
<path d="M866 317H840C837.239 317 835 319.239 835 322V337C835 339.761 837.239 342 840 342H866C868.761 342 871 339.761 871 337V322C871 319.239 868.761 317 866 317Z" fill="#E5E7EB"/>
<path d="M393 462H50C47.2386 462 45 464.239 45 467V593C45 595.761 47.2386 598 50 598H393C395.761 598 398 595.761 398 593V467C398 464.239 395.761 462 393 462Z" fill="#E5E7EB"/>
<path d="M538 462H413C410.239 462 408 464.239 408 467V593C408 595.761 410.239 598 413 598H538C540.761 598 543 595.761 543 593V467C543 464.239 540.761 462 538 462Z" fill="#E5E7EB"/>
<path d="M475.5 506V554" stroke="#9C9C9C" stroke-width="3"/>
<path d="M451 529.5H499" stroke="#9C9C9C" stroke-width="3"/>
</g>
<defs>
<clipPath id="clip0_1121_4739">
<rect width="928" height="639" fill="white"/>
</clipPath>
</defs>
</svg>
