<svg width="928" height="631" viewBox="0 0 928 631" fill="none" xmlns="http://www.w3.org/2000/svg">
<g clip-path="url(#clip0_1634_5774)">
<path d="M928 -151H0V631H928V-151Z" fill="white"/>
<path d="M927 0H0V55H927V0Z" fill="#E5E7EB"/>
<path d="M139 104H41C39.3431 104 38 105.343 38 107V117C38 118.657 39.3431 120 41 120H139C140.657 120 142 118.657 142 117V107C142 105.343 140.657 104 139 104Z" fill="#E5E7EB"/>
<path d="M460 104H395C393.343 104 392 105.343 392 107V117C392 118.657 393.343 120 395 120H460C461.657 120 463 118.657 463 117V107C463 105.343 461.657 104 460 104Z" fill="#E5E7EB"/>
<path d="M568 104H513C511.343 104 510 105.343 510 107V117C510 118.657 511.343 120 513 120H568C569.657 120 571 118.657 571 117V107C571 105.343 569.657 104 568 104Z" fill="#E5E7EB"/>
<path d="M876 100H797C795.343 100 794 101.343 794 103V122C794 123.657 795.343 125 797 125H876C877.657 125 879 123.657 879 122V103C879 101.343 877.657 100 876 100Z" fill="#E5E7EB"/>
<path d="M719 104H650C648.343 104 647 105.343 647 107V117C647 118.657 648.343 120 650 120H719C720.657 120 722 118.657 722 117V107C722 105.343 720.657 104 719 104Z" fill="#E5E7EB"/>
<path d="M634 119C637.314 119 640 116.314 640 113C640 109.686 637.314 107 634 107C630.686 107 628 109.686 628 113C628 116.314 630.686 119 634 119Z" fill="#E5E7EB"/>
<path d="M323 114H216C214.343 114 213 115.343 213 117V127C213 128.657 214.343 130 216 130H323C324.657 130 326 128.657 326 127V117C326 115.343 324.657 114 323 114Z" fill="#E5E7EB"/>
<path d="M290 94H216C214.343 94 213 95.3431 213 97V107C213 108.657 214.343 110 216 110H290C291.657 110 293 108.657 293 107V97C293 95.3431 291.657 94 290 94Z" fill="#E5E7EB"/>
<path d="M139 190H41C39.3431 190 38 191.343 38 193V203C38 204.657 39.3431 206 41 206H139C140.657 206 142 204.657 142 203V193C142 191.343 140.657 190 139 190Z" fill="#E5E7EB"/>
<path d="M460 190H395C393.343 190 392 191.343 392 193V203C392 204.657 393.343 206 395 206H460C461.657 206 463 204.657 463 203V193C463 191.343 461.657 190 460 190Z" fill="#E5E7EB"/>
<path d="M568 190H513C511.343 190 510 191.343 510 193V203C510 204.657 511.343 206 513 206H568C569.657 206 571 204.657 571 203V193C571 191.343 569.657 190 568 190Z" fill="#E5E7EB"/>
<path d="M876 186H797C795.343 186 794 187.343 794 189V208C794 209.657 795.343 211 797 211H876C877.657 211 879 209.657 879 208V189C879 187.343 877.657 186 876 186Z" fill="#E5E7EB"/>
<path d="M719 190H650C648.343 190 647 191.343 647 193V203C647 204.657 648.343 206 650 206H719C720.657 206 722 204.657 722 203V193C722 191.343 720.657 190 719 190Z" fill="#E5E7EB"/>
<path d="M634 205C637.314 205 640 202.314 640 199C640 195.686 637.314 193 634 193C630.686 193 628 195.686 628 199C628 202.314 630.686 205 634 205Z" fill="#E5E7EB"/>
<path d="M323 200H216C214.343 200 213 201.343 213 203V213C213 214.657 214.343 216 216 216H323C324.657 216 326 214.657 326 213V203C326 201.343 324.657 200 323 200Z" fill="#E5E7EB"/>
<path d="M290 180H216C214.343 180 213 181.343 213 183V193C213 194.657 214.343 196 216 196H290C291.657 196 293 194.657 293 193V183C293 181.343 291.657 180 290 180Z" fill="#E5E7EB"/>
<path d="M139 276H41C39.3431 276 38 277.343 38 279V289C38 290.657 39.3431 292 41 292H139C140.657 292 142 290.657 142 289V279C142 277.343 140.657 276 139 276Z" fill="#E5E7EB"/>
<path d="M460 276H395C393.343 276 392 277.343 392 279V289C392 290.657 393.343 292 395 292H460C461.657 292 463 290.657 463 289V279C463 277.343 461.657 276 460 276Z" fill="#E5E7EB"/>
<path d="M568 276H513C511.343 276 510 277.343 510 279V289C510 290.657 511.343 292 513 292H568C569.657 292 571 290.657 571 289V279C571 277.343 569.657 276 568 276Z" fill="#E5E7EB"/>
<path d="M876 272H797C795.343 272 794 273.343 794 275V294C794 295.657 795.343 297 797 297H876C877.657 297 879 295.657 879 294V275C879 273.343 877.657 272 876 272Z" fill="#E5E7EB"/>
<path d="M719 276H650C648.343 276 647 277.343 647 279V289C647 290.657 648.343 292 650 292H719C720.657 292 722 290.657 722 289V279C722 277.343 720.657 276 719 276Z" fill="#E5E7EB"/>
<path d="M634 291C637.314 291 640 288.314 640 285C640 281.686 637.314 279 634 279C630.686 279 628 281.686 628 285C628 288.314 630.686 291 634 291Z" fill="#E5E7EB"/>
<path d="M323 286H216C214.343 286 213 287.343 213 289V299C213 300.657 214.343 302 216 302H323C324.657 302 326 300.657 326 299V289C326 287.343 324.657 286 323 286Z" fill="#E5E7EB"/>
<path d="M290 266H216C214.343 266 213 267.343 213 269V279C213 280.657 214.343 282 216 282H290C291.657 282 293 280.657 293 279V269C293 267.343 291.657 266 290 266Z" fill="#E5E7EB"/>
<path d="M139 362H41C39.3431 362 38 363.343 38 365V375C38 376.657 39.3431 378 41 378H139C140.657 378 142 376.657 142 375V365C142 363.343 140.657 362 139 362Z" fill="#E5E7EB"/>
<path d="M460 362H395C393.343 362 392 363.343 392 365V375C392 376.657 393.343 378 395 378H460C461.657 378 463 376.657 463 375V365C463 363.343 461.657 362 460 362Z" fill="#E5E7EB"/>
<path d="M568 362H513C511.343 362 510 363.343 510 365V375C510 376.657 511.343 378 513 378H568C569.657 378 571 376.657 571 375V365C571 363.343 569.657 362 568 362Z" fill="#E5E7EB"/>
<path d="M876 358H797C795.343 358 794 359.343 794 361V380C794 381.657 795.343 383 797 383H876C877.657 383 879 381.657 879 380V361C879 359.343 877.657 358 876 358Z" fill="#E5E7EB"/>
<path d="M719 362H650C648.343 362 647 363.343 647 365V375C647 376.657 648.343 378 650 378H719C720.657 378 722 376.657 722 375V365C722 363.343 720.657 362 719 362Z" fill="#E5E7EB"/>
<path d="M634 377C637.314 377 640 374.314 640 371C640 367.686 637.314 365 634 365C630.686 365 628 367.686 628 371C628 374.314 630.686 377 634 377Z" fill="#E5E7EB"/>
<path d="M323 372H216C214.343 372 213 373.343 213 375V385C213 386.657 214.343 388 216 388H323C324.657 388 326 386.657 326 385V375C326 373.343 324.657 372 323 372Z" fill="#E5E7EB"/>
<path d="M290 352H216C214.343 352 213 353.343 213 355V365C213 366.657 214.343 368 216 368H290C291.657 368 293 366.657 293 365V355C293 353.343 291.657 352 290 352Z" fill="#E5E7EB"/>
</g>
<defs>
<clipPath id="clip0_1634_5774">
<rect width="928" height="631" fill="white"/>
</clipPath>
</defs>
</svg>
