<svg width="590" height="632" viewBox="0 0 590 632" fill="none" xmlns="http://www.w3.org/2000/svg">
<rect width="590" height="632" fill="white"/>
<rect x="43" y="53" width="215" height="14" rx="2" fill="#E5E7EB"/>
<rect x="43" y="109" width="375" height="14" rx="2" fill="#E5E7EB"/>
<rect x="43" y="127" width="460" height="14" rx="2" fill="#E5E7EB"/>
<rect x="43" y="145" width="261" height="14" rx="2" fill="#E5E7EB"/>
<rect x="43" y="73" width="107" height="14" rx="2" fill="#E5E7EB"/>
<rect x="41" y="194" width="72" height="72" rx="5" fill="#E5E7EB"/>
<rect x="121" y="194" width="72" height="72" rx="5" fill="#E5E7EB"/>
<rect x="201" y="194" width="72" height="72" rx="5" fill="#E5E7EB"/>
<rect x="43" y="316" width="215" height="14" rx="2" fill="#E5E7EB"/>
<rect x="43" y="372" width="375" height="14" rx="2" fill="#E5E7EB"/>
<rect x="43" y="390" width="460" height="14" rx="2" fill="#E5E7EB"/>
<rect x="43" y="408" width="261" height="14" rx="2" fill="#E5E7EB"/>
<rect x="43" y="336" width="107" height="14" rx="2" fill="#E5E7EB"/>
<rect x="41" y="457" width="72" height="72" rx="5" fill="#E5E7EB"/>
<rect x="121" y="457" width="72" height="72" rx="5" fill="#E5E7EB"/>
<rect x="201" y="457" width="72" height="72" rx="5" fill="#E5E7EB"/>
</svg>
