<svg width="299" height="538" viewBox="0 0 299 538" fill="none" xmlns="http://www.w3.org/2000/svg">
<g clip-path="url(#clip0_1121_4738)">
<rect width="299" height="538" fill="white"/>
<path d="M294 0H5C2.23858 0 0 2.23858 0 5V533C0 535.761 2.23858 538 5 538H294C296.761 538 299 535.761 299 533V5C299 2.23858 296.761 0 294 0Z" fill="white"/>
<path d="M195 81C195 55.0426 173.957 34 148 34C122.043 34 101 55.0426 101 81C101 106.957 122.043 128 148 128C173.957 128 195 106.957 195 81Z" fill="#E5E7EB"/>
<path d="M222 145H73V163H222V145Z" fill="#E5E7EB"/>
<path d="M199 167H96V179H199V167Z" fill="#E5E7EB"/>
<path d="M49 214H39C37.3431 214 36 215.343 36 217V227C36 228.657 37.3431 230 39 230H49C50.6569 230 52 228.657 52 227V217C52 215.343 50.6569 214 49 214Z" fill="#E5E7EB"/>
<path d="M49 260H39C37.3431 260 36 261.343 36 263V273C36 274.657 37.3431 276 39 276H49C50.6569 276 52 274.657 52 273V263C52 261.343 50.6569 260 49 260Z" fill="#E5E7EB"/>
<path d="M49 306H39C37.3431 306 36 307.343 36 309V319C36 320.657 37.3431 322 39 322H49C50.6569 322 52 320.657 52 319V309C52 307.343 50.6569 306 49 306Z" fill="#E5E7EB"/>
<path d="M49 352H39C37.3431 352 36 353.343 36 355V365C36 366.657 37.3431 368 39 368H49C50.6569 368 52 366.657 52 365V355C52 353.343 50.6569 352 49 352Z" fill="#E5E7EB"/>
<path d="M49 398H39C37.3431 398 36 399.343 36 401V411C36 412.657 37.3431 414 39 414H49C50.6569 414 52 412.657 52 411V401C52 399.343 50.6569 398 49 398Z" fill="#E5E7EB"/>
<path d="M49 444H39C37.3431 444 36 445.343 36 447V457C36 458.657 37.3431 460 39 460H49C50.6569 460 52 458.657 52 457V447C52 445.343 50.6569 444 49 444Z" fill="#E5E7EB"/>
<path d="M49 490H39C37.3431 490 36 491.343 36 493V503C36 504.657 37.3431 506 39 506H49C50.6569 506 52 504.657 52 503V493C52 491.343 50.6569 490 49 490Z" fill="#E5E7EB"/>
<path d="M133 214H72C70.3431 214 69 215.343 69 217V227C69 228.657 70.3431 230 72 230H133C134.657 230 136 228.657 136 227V217C136 215.343 134.657 214 133 214Z" fill="#E5E7EB"/>
<path d="M168 260H72C70.3431 260 69 261.343 69 263V273C69 274.657 70.3431 276 72 276H168C169.657 276 171 274.657 171 273V263C171 261.343 169.657 260 168 260Z" fill="#E5E7EB"/>
<path d="M143 306H72C70.3431 306 69 307.343 69 309V319C69 320.657 70.3431 322 72 322H143C144.657 322 146 320.657 146 319V309C146 307.343 144.657 306 143 306Z" fill="#E5E7EB"/>
<path d="M189 352H72C70.3431 352 69 353.343 69 355V365C69 366.657 70.3431 368 72 368H189C190.657 368 192 366.657 192 365V355C192 353.343 190.657 352 189 352Z" fill="#E5E7EB"/>
<path d="M200 398H72C70.3431 398 69 399.343 69 401V411C69 412.657 70.3431 414 72 414H200C201.657 414 203 412.657 203 411V401C203 399.343 201.657 398 200 398Z" fill="#E5E7EB"/>
<path d="M125 444H72C70.3431 444 69 445.343 69 447V457C69 458.657 70.3431 460 72 460H125C126.657 460 128 458.657 128 457V447C128 445.343 126.657 444 125 444Z" fill="#E5E7EB"/>
<path d="M168 490H72C70.3431 490 69 491.343 69 493V503C69 504.657 70.3431 506 72 506H168C169.657 506 171 504.657 171 503V493C171 491.343 169.657 490 168 490Z" fill="#E5E7EB"/>
</g>
<defs>
<clipPath id="clip0_1121_4738">
<rect width="299" height="538" fill="white"/>
</clipPath>
</defs>
</svg>
