<svg width="958" height="660" viewBox="0 0 958 660" fill="none" xmlns="http://www.w3.org/2000/svg">
<rect x="34" y="33" width="483" height="462" rx="5" fill="#E5E7EB"/>
<rect x="95" y="512" width="111" height="111" rx="5" fill="#E5E7EB"/>
<rect x="220" y="512" width="111" height="111" rx="5" fill="#E5E7EB"/>
<rect x="345" y="512" width="111" height="111" rx="5" fill="#E5E7EB"/>
<rect x="534" y="34" width="109" height="14" rx="3" fill="#E5E7EB"/>
<rect x="534" y="65" width="315" height="18" rx="3" fill="#E5E7EB"/>
<rect x="534" y="164" width="70" height="18" rx="3" fill="#E5E7EB"/>
<rect x="534" y="90" width="198" height="18" rx="3" fill="#E5E7EB"/>
<rect x="534" y="223" width="70" height="18" rx="3" fill="#E5E7EB"/>
<rect x="534" y="368" width="70" height="20" rx="3" fill="#E5E7EB"/>
<rect x="620" y="365" width="74" height="26" rx="3" fill="#E5E7EB"/>
<rect x="619" y="159" width="30" height="30" rx="3" fill="#E5E7EB"/>
<rect x="619" y="218" width="30" height="30" rx="3" fill="#E5E7EB"/>
<rect x="657" y="159" width="30" height="30" rx="3" fill="#E5E7EB"/>
<rect x="657" y="218" width="30" height="30" rx="3" fill="#E5E7EB"/>
<rect x="693" y="159" width="30" height="30" rx="3" fill="#E5E7EB"/>
<rect x="693" y="218" width="30" height="30" rx="3" fill="#E5E7EB"/>
<rect x="534" y="448" width="160" height="47" rx="5" fill="#E5E7EB"/>
<rect x="705" y="448" width="160" height="47" rx="5" fill="#E5E7EB"/>
</svg>
