<svg width="496" height="1136" viewBox="0 0 496 1136" fill="none" xmlns="http://www.w3.org/2000/svg">
<path d="M490.865 0H5.13458C2.29883 0 0 2.26765 0 5.06494V462.935C0 465.732 2.29883 468 5.13458 468H490.865C493.701 468 496 465.732 496 462.935V5.06494C496 2.26765 493.701 0 490.865 0Z" fill="#E5E7EB"/>
<path d="M173 488H72C69.2386 488 67 490.239 67 493V594C67 596.761 69.2386 599 72 599H173C175.761 599 178 596.761 178 594V493C178 490.239 175.761 488 173 488Z" fill="#E5E7EB"/>
<path d="M298 488H197C194.239 488 192 490.239 192 493V594C192 596.761 194.239 599 197 599H298C300.761 599 303 596.761 303 594V493C303 490.239 300.761 488 298 488Z" fill="#E5E7EB"/>
<path d="M423 488H322C319.239 488 317 490.239 317 493V594C317 596.761 319.239 599 322 599H423C425.761 599 428 596.761 428 594V493C428 490.239 425.761 488 423 488Z" fill="#E5E7EB"/>
<path d="M106 651H3C1.34315 651 0 652.343 0 654V662C0 663.657 1.34315 665 3 665H106C107.657 665 109 663.657 109 662V654C109 652.343 107.657 651 106 651Z" fill="#E5E7EB"/>
<path d="M312 682H3C1.34315 682 0 683.343 0 685V697C0 698.657 1.34315 700 3 700H312C313.657 700 315 698.657 315 697V685C315 683.343 313.657 682 312 682Z" fill="#E5E7EB"/>
<path d="M67 781H3C1.34315 781 0 782.343 0 784V796C0 797.657 1.34315 799 3 799H67C68.6569 799 70 797.657 70 796V784C70 782.343 68.6569 781 67 781Z" fill="#E5E7EB"/>
<path d="M195 707H3C1.34315 707 0 708.343 0 710V722C0 723.657 1.34315 725 3 725H195C196.657 725 198 723.657 198 722V710C198 708.343 196.657 707 195 707Z" fill="#E5E7EB"/>
<path d="M67 840H3C1.34315 840 0 841.343 0 843V855C0 856.657 1.34315 858 3 858H67C68.6569 858 70 856.657 70 855V843C70 841.343 68.6569 840 67 840Z" fill="#E5E7EB"/>
<path d="M67 985H3C1.34315 985 0 986.343 0 988V1002C0 1003.66 1.34315 1005 3 1005H67C68.6569 1005 70 1003.66 70 1002V988C70 986.343 68.6569 985 67 985Z" fill="#E5E7EB"/>
<path d="M157 982H89C87.3431 982 86 983.343 86 985V1005C86 1006.66 87.3431 1008 89 1008H157C158.657 1008 160 1006.66 160 1005V985C160 983.343 158.657 982 157 982Z" fill="#E5E7EB"/>
<path d="M112 776H88C86.3431 776 85 777.343 85 779V803C85 804.657 86.3431 806 88 806H112C113.657 806 115 804.657 115 803V779C115 777.343 113.657 776 112 776Z" fill="#E5E7EB"/>
<path d="M112 835H88C86.3431 835 85 836.343 85 838V862C85 863.657 86.3431 865 88 865H112C113.657 865 115 863.657 115 862V838C115 836.343 113.657 835 112 835Z" fill="#E5E7EB"/>
<path d="M150 776H126C124.343 776 123 777.343 123 779V803C123 804.657 124.343 806 126 806H150C151.657 806 153 804.657 153 803V779C153 777.343 151.657 776 150 776Z" fill="#E5E7EB"/>
<path d="M150 835H126C124.343 835 123 836.343 123 838V862C123 863.657 124.343 865 126 865H150C151.657 865 153 863.657 153 862V838C153 836.343 151.657 835 150 835Z" fill="#E5E7EB"/>
<path d="M186 776H162C160.343 776 159 777.343 159 779V803C159 804.657 160.343 806 162 806H186C187.657 806 189 804.657 189 803V779C189 777.343 187.657 776 186 776Z" fill="#E5E7EB"/>
<path d="M186 835H162C160.343 835 159 836.343 159 838V862C159 863.657 160.343 865 162 865H186C187.657 865 189 863.657 189 862V838C189 836.343 187.657 835 186 835Z" fill="#E5E7EB"/>
<path d="M155 1065H5C2.23858 1065 0 1067.24 0 1070V1107C0 1109.76 2.23858 1112 5 1112H155C157.761 1112 160 1109.76 160 1107V1070C160 1067.24 157.761 1065 155 1065Z" fill="#E5E7EB"/>
<path d="M326 1065H176C173.239 1065 171 1067.24 171 1070V1107C171 1109.76 173.239 1112 176 1112H326C328.761 1112 331 1109.76 331 1107V1070C331 1067.24 328.761 1065 326 1065Z" fill="#E5E7EB"/>
</svg>
