<svg width="928" height="945" viewBox="0 0 928 945" fill="none" xmlns="http://www.w3.org/2000/svg">
<rect width="928" height="945" fill="white"/>
<rect x="37.5" y="88.5" width="202" height="396" rx="4.5" stroke="#EEEEEE"/>
<rect x="59" y="104" width="159" height="159" rx="5" fill="#E5E7EB"/>
<rect x="59" y="292" width="109" height="18" rx="2" fill="#E5E7EB"/>
<rect x="59" y="323" width="158" height="14" rx="2" fill="#E5E7EB"/>
<rect x="59" y="342" width="130" height="14" rx="2" fill="#E5E7EB"/>
<rect x="59" y="361" width="54" height="14" rx="2" fill="#E5E7EB"/>
<rect x="59" y="394" width="72" height="22" rx="2" fill="#E5E7EB"/>
<rect x="59" y="435" width="119" height="34" rx="2" fill="#E5E7EB"/>
<rect x="37.5" y="499.5" width="202" height="396" rx="4.5" stroke="#EEEEEE"/>
<rect x="59" y="515" width="159" height="159" rx="5" fill="#E5E7EB"/>
<rect x="59" y="703" width="109" height="18" rx="2" fill="#E5E7EB"/>
<rect x="59" y="734" width="158" height="14" rx="2" fill="#E5E7EB"/>
<rect x="59" y="753" width="130" height="14" rx="2" fill="#E5E7EB"/>
<rect x="59" y="772" width="54" height="14" rx="2" fill="#E5E7EB"/>
<rect x="59" y="805" width="72" height="22" rx="2" fill="#E5E7EB"/>
<rect x="59" y="846" width="119" height="34" rx="2" fill="#E5E7EB"/>
<rect x="254.5" y="88.5" width="202" height="396" rx="4.5" stroke="#EEEEEE"/>
<rect x="276" y="104" width="159" height="159" rx="5" fill="#E5E7EB"/>
<rect x="276" y="292" width="109" height="18" rx="2" fill="#E5E7EB"/>
<rect x="276" y="323" width="158" height="14" rx="2" fill="#E5E7EB"/>
<rect x="276" y="342" width="130" height="14" rx="2" fill="#E5E7EB"/>
<rect x="276" y="361" width="54" height="14" rx="2" fill="#E5E7EB"/>
<rect x="276" y="394" width="72" height="22" rx="2" fill="#E5E7EB"/>
<rect x="276" y="435" width="119" height="34" rx="2" fill="#E5E7EB"/>
<rect x="254.5" y="499.5" width="202" height="396" rx="4.5" stroke="#EEEEEE"/>
<rect x="276" y="515" width="159" height="159" rx="5" fill="#E5E7EB"/>
<rect x="276" y="703" width="109" height="18" rx="2" fill="#E5E7EB"/>
<rect x="276" y="734" width="158" height="14" rx="2" fill="#E5E7EB"/>
<rect x="276" y="753" width="130" height="14" rx="2" fill="#E5E7EB"/>
<rect x="276" y="772" width="54" height="14" rx="2" fill="#E5E7EB"/>
<rect x="276" y="805" width="72" height="22" rx="2" fill="#E5E7EB"/>
<rect x="276" y="846" width="119" height="34" rx="2" fill="#E5E7EB"/>
<rect x="471.5" y="88.5" width="202" height="396" rx="4.5" stroke="#EEEEEE"/>
<rect x="493" y="104" width="159" height="159" rx="5" fill="#E5E7EB"/>
<rect x="493" y="292" width="109" height="18" rx="2" fill="#E5E7EB"/>
<rect x="493" y="323" width="158" height="14" rx="2" fill="#E5E7EB"/>
<rect x="493" y="342" width="130" height="14" rx="2" fill="#E5E7EB"/>
<rect x="493" y="361" width="54" height="14" rx="2" fill="#E5E7EB"/>
<rect x="493" y="394" width="72" height="22" rx="2" fill="#E5E7EB"/>
<rect x="493" y="435" width="119" height="34" rx="2" fill="#E5E7EB"/>
<rect x="471.5" y="499.5" width="202" height="396" rx="4.5" stroke="#EEEEEE"/>
<rect x="493" y="515" width="159" height="159" rx="5" fill="#E5E7EB"/>
<rect x="493" y="703" width="109" height="18" rx="2" fill="#E5E7EB"/>
<rect x="493" y="734" width="158" height="14" rx="2" fill="#E5E7EB"/>
<rect x="493" y="753" width="130" height="14" rx="2" fill="#E5E7EB"/>
<rect x="493" y="772" width="54" height="14" rx="2" fill="#E5E7EB"/>
<rect x="493" y="805" width="72" height="22" rx="2" fill="#E5E7EB"/>
<rect x="493" y="846" width="119" height="34" rx="2" fill="#E5E7EB"/>
<rect x="688.5" y="88.5" width="202" height="396" rx="4.5" stroke="#EEEEEE"/>
<rect x="710" y="104" width="159" height="159" rx="5" fill="#E5E7EB"/>
<rect x="710" y="292" width="109" height="18" rx="2" fill="#E5E7EB"/>
<rect x="710" y="323" width="158" height="14" rx="2" fill="#E5E7EB"/>
<rect x="710" y="342" width="130" height="14" rx="2" fill="#E5E7EB"/>
<rect x="710" y="361" width="54" height="14" rx="2" fill="#E5E7EB"/>
<rect x="710" y="394" width="72" height="22" rx="2" fill="#E5E7EB"/>
<rect x="710" y="435" width="119" height="34" rx="2" fill="#E5E7EB"/>
<rect x="688.5" y="499.5" width="202" height="396" rx="4.5" stroke="#EEEEEE"/>
<rect x="710" y="515" width="159" height="159" rx="5" fill="#E5E7EB"/>
<rect x="710" y="703" width="109" height="18" rx="2" fill="#E5E7EB"/>
<rect x="710" y="734" width="158" height="14" rx="2" fill="#E5E7EB"/>
<rect x="710" y="753" width="130" height="14" rx="2" fill="#E5E7EB"/>
<rect x="710" y="772" width="54" height="14" rx="2" fill="#E5E7EB"/>
<rect x="710" y="805" width="72" height="22" rx="2" fill="#E5E7EB"/>
<rect x="710" y="846" width="119" height="34" rx="2" fill="#E5E7EB"/>
</svg>
