<svg width="63" height="48" viewBox="0 0 63 48" fill="none" xmlns="http://www.w3.org/2000/svg">
<g clip-path="url(#clip0_2029_5887)">
<path fill-rule="evenodd" clip-rule="evenodd" d="M56.0895 9.72656L14.6268 9.7276C12.7193 9.7276 11.1719 11.2854 11.1719 13.2066C11.1719 22.4849 11.1719 31.7632 11.1719 41.0415C11.1719 42.9622 12.7198 44.5205 14.6268 44.5205H56.0895C57.9965 44.5205 59.545 42.9616 59.545 41.0404L59.5444 13.2066C59.5444 11.2864 57.9969 9.72656 56.0895 9.72656Z" fill="#FFC590"/>
<path fill-rule="evenodd" clip-rule="evenodd" d="M56.0894 9.72656L37.1137 9.72704C36.6236 10.4919 36.1472 11.2742 35.6876 12.0759C29.3191 23.1834 27.4681 35.2016 29.8411 44.5205H56.0894C57.9963 44.5205 59.5448 42.9616 59.5448 41.0404L59.5443 13.2066C59.5443 11.2864 57.9968 9.72656 56.0894 9.72656Z" fill="#FF7E06"/>
<path fill-rule="evenodd" clip-rule="evenodd" d="M44.5368 29.7339H42.1353C41.4814 29.7339 40.9473 30.2719 40.9473 30.9302V32.0171C40.9473 32.6754 41.4814 33.2134 42.1353 33.2134H44.5368C45.1905 33.2134 45.7249 32.6754 45.7249 32.0171V30.9302C45.7249 30.2719 45.1905 29.7339 44.5368 29.7339Z" fill="#7F3D00"/>
<path fill-rule="evenodd" clip-rule="evenodd" d="M56.0896 6.24794H55.2468C54.8932 2.73892 51.9509 0 48.3731 0H6.91048C3.09403 0 0 3.11561 0 6.95853V34.7924C0 38.6354 3.09403 41.752 6.91048 41.752H7.75231C8.10637 45.2605 11.0491 47.9999 14.627 47.9999L56.0897 47.999C59.906 47.999 63 44.8845 63 41.0414V13.2066C63 9.36355 59.906 6.24794 56.0896 6.24794ZM56.0896 9.72649C57.997 9.72649 59.5444 11.2862 59.5444 13.2065V16.7951H11.1719V13.2065C11.1719 11.2853 12.7194 9.72753 14.6268 9.72753L56.0896 9.72649ZM7.7164 38.2725H6.91048C5.00344 38.2725 3.45548 36.7142 3.45548 34.7934V19.1364H7.7164V38.2725ZM8.23951 10.5472H3.45548V6.95853C3.45548 5.03731 5.00297 3.47942 6.91048 3.47942L48.3731 3.47854C50.0387 3.47854 51.4301 4.66798 51.7557 6.24786H14.6269C11.7458 6.24794 9.27723 8.02333 8.23951 10.5472ZM56.0896 44.5205H14.6269C12.7198 44.5205 11.172 42.9622 11.172 41.0415V25.3845H59.5445L59.5451 41.0404C59.5451 42.9616 57.9966 44.5205 56.0896 44.5205Z" fill="#7F3D00"/>
<path fill-rule="evenodd" clip-rule="evenodd" d="M37.4907 29.7339H16.0323C15.3786 29.7339 14.8442 30.2719 14.8442 30.9302V32.0171C14.8442 32.6754 15.3786 33.2134 16.0323 33.2134H37.4907C38.1444 33.2134 38.6788 32.6754 38.6788 32.0171V30.9302C38.6788 30.2719 38.1444 29.7339 37.4907 29.7339Z" fill="#7F3D00"/>
<path fill-rule="evenodd" clip-rule="evenodd" d="M48.3732 3.47852L6.91057 3.47932C5.00314 3.47932 3.45557 5.0372 3.45557 6.95842V10.547H8.2396C9.27724 8.02314 11.7459 6.24775 14.627 6.24775H51.7557C51.4301 4.66787 50.0387 3.47852 48.3732 3.47852Z" fill="#FFC590"/>
<path fill-rule="evenodd" clip-rule="evenodd" d="M48.3731 3.47852L41.7871 3.4786C41.0162 4.36405 40.2663 5.28814 39.5396 6.24783H51.7557C51.43 4.66787 50.0387 3.47852 48.3731 3.47852Z" fill="#FF7E06"/>
<path fill-rule="evenodd" clip-rule="evenodd" d="M3.45557 34.7932C3.45557 36.7139 5.00353 38.2723 6.91057 38.2723H7.71657V19.1362H3.45557V34.7932Z" fill="#FFC590"/>
</g>
<defs>
<clipPath id="clip0_2029_5887">
<rect width="63" height="48" fill="white"/>
</clipPath>
</defs>
</svg>
