<svg width="53" height="53" viewBox="0 0 53 53" fill="none" xmlns="http://www.w3.org/2000/svg">
<g clip-path="url(#clip0_2029_5900)">
<path fill-rule="evenodd" clip-rule="evenodd" d="M48.4601 12.3912C34.1061 12.3916 18.8933 12.3916 4.53918 12.3916C4.09282 12.3916 2.88281 12.1493 2.88281 13.8375V22.3646C2.88281 23.2801 3.62521 24.0205 4.53918 24.0205H6.19563V46.6967C6.19563 48.5253 7.67958 50.0089 9.5083 50.0089C20.5498 50.0091 32.4499 50.0093 43.4914 50.0093C45.3202 50.0093 46.8041 48.5254 46.8041 46.6967V24.0206H48.46C49.3746 24.0206 50.1163 23.2802 50.1163 22.3647V14.048C50.1164 12.0606 48.9869 12.3912 48.4601 12.3912Z" fill="#FFC590"/>
<path fill-rule="evenodd" clip-rule="evenodd" d="M48.46 12.3912L31.545 12.3915C23.7216 16.8785 16.7948 25.8239 13.2939 37.2352C11.9651 41.5664 11.2459 45.8799 11.0791 50.0089L43.4913 50.0094C45.32 50.0094 46.804 48.5255 46.804 46.6968V24.0206H48.4599C49.3745 24.0206 50.1162 23.2802 50.1162 22.3647V14.048C50.1163 12.0606 48.9868 12.3912 48.46 12.3912Z" fill="#FF7E06"/>
<path fill-rule="evenodd" clip-rule="evenodd" d="M49.6872 9.93724H40.7656L47.667 5.76444C49.7618 4.49724 47.8534 1.4512 45.8688 2.64986L38.0482 7.37747C38.0777 7.1311 38.0937 6.87985 38.0937 6.62495C38.0937 2.96622 35.127 1.74652e-07 31.4688 1.74652e-07C29.4776 -0.000456776 27.7138 0.895777 26.4997 2.28552C25.2856 0.89532 23.5218 1.74652e-07 21.5312 1.74652e-07C17.5846 -0.000456776 14.4818 3.463 14.9517 7.37801L7.13064 2.64986C5.14611 1.4512 3.23765 4.49724 5.33247 5.76444L12.234 9.93724H3.31221C1.4841 9.93724 0 11.4212 0 13.2499V22.196C0 24.0247 1.4841 25.5087 3.31221 25.5087V46.3746C3.31221 50.0328 6.27889 52.9995 9.93709 52.9995L43.0622 53C46.721 52.9995 49.6871 50.0333 49.6871 46.3746V25.5082C51.5158 25.5082 52.9999 24.0247 52.9999 22.196V13.2495C53 11.4212 51.5159 9.93724 49.6872 9.93724ZM4.96858 22.1959C4.05453 22.1959 3.31229 21.4555 3.31229 20.54V14.6959C3.31229 13.0076 4.52222 13.2499 4.96858 13.2499H19.2635V22.196H4.96858V22.1959ZM9.9377 49.6867C8.10898 49.6867 6.62503 48.2032 6.62503 46.3745V25.5082H19.2635L19.2752 49.6868H9.9377V49.6867ZM18.2185 6.62503C18.2185 4.79631 19.7026 3.31221 21.5312 3.31221C23.3599 3.31221 24.8434 4.79631 24.8434 6.62503C24.8439 8.45321 23.3599 9.93724 21.5312 9.93724C19.7026 9.93724 18.2185 8.45314 18.2185 6.62503ZM22.8485 49.6867L22.8603 13.2498H30.1392L30.151 49.6867H22.8485ZM28.156 6.62503C28.156 4.79631 29.6401 3.31221 31.4688 3.31221C33.297 3.31221 34.7811 4.79631 34.7811 6.62503C34.7811 8.45321 33.297 9.93724 31.4688 9.93724C29.6401 9.93724 28.156 8.45314 28.156 6.62503ZM46.375 46.3745C46.375 48.2032 44.891 49.6871 43.0623 49.6871H33.7242L33.736 25.5082H46.375V46.3745ZM49.6872 20.54C49.6872 21.4556 48.9454 22.1959 48.0309 22.1959H33.736V13.2499L48.0308 13.2495C48.5577 13.2495 49.6871 12.9166 49.6871 14.9063V20.54H49.6872Z" fill="#7F3D00"/>
</g>
<defs>
<clipPath id="clip0_2029_5900">
<rect width="53" height="53" fill="white"/>
</clipPath>
</defs>
</svg>
