<svg width="53" height="55" viewBox="0 0 53 55" fill="none" xmlns="http://www.w3.org/2000/svg">
<g clip-path="url(#clip0_2029_5904)">
<path fill-rule="evenodd" clip-rule="evenodd" d="M41.517 2.99121H11.4827L2.98622 17.8311L2.95801 23.1552C2.95801 24.9086 3.7238 26.1534 4.8111 26.892C4.81732 43.1786 4.81559 39.3709 4.81409 48.459C4.81409 50.3568 6.55203 51.8962 8.50482 51.8968C17.5102 51.8968 20.6332 51.8962 44.4947 51.8968C46.4476 51.8962 48.1855 50.3567 48.1855 48.459C48.1841 39.3709 48.1823 43.1786 48.1885 26.892C49.2757 26.1537 50.0416 24.9086 50.0416 23.1552L49.8361 17.187L41.517 2.99121Z" fill="#FFC590"/>
<path fill-rule="evenodd" clip-rule="evenodd" d="M41.5171 2.99121H35.1238C29.7777 8.09789 25.2962 15.3287 22.6733 23.9016C19.5903 33.9775 19.6695 43.9625 22.2864 51.8965L44.4949 51.8968C46.4477 51.8962 48.1857 50.3567 48.1857 48.459C48.1842 39.3709 48.1824 43.1786 48.1887 26.892C49.2759 26.1537 50.0417 24.9086 50.0417 23.1552L49.8362 17.187L41.5171 2.99121Z" fill="#FF7E06"/>
<path fill-rule="evenodd" clip-rule="evenodd" d="M43.7678 1.26294C43.1901 0.266497 42.6041 0 41.4607 0H11.5393C10.396 0 9.81007 0.266497 9.23226 1.26294L0.567568 16.2088C0.179862 16.8778 0 17.4722 0 18.2477V23.1553C0 25.0072 0.646307 26.7154 1.72398 28.0645L1.76718 48.1246C1.76718 51.9218 4.93321 55 8.83777 55H44.1623C48.0668 55 51.2328 51.9218 51.2328 48.1246L51.2761 28.0645C52.3538 26.7154 52.9999 25.0073 52.9999 23.1553V18.5776C52.9999 17.4576 52.9455 17.0941 52.393 16.1401L43.7678 1.26294ZM47.8526 48.125C47.8526 50.0226 46.1146 51.5622 44.1618 51.5627L25.2931 51.5622V35.1474C25.2931 34.0487 24.3971 33.1504 23.3015 33.1504H14.6276C13.5319 33.1504 12.6359 34.0488 12.6359 35.1474V51.5627H8.83825C6.88553 51.5622 5.1476 50.0226 5.1476 48.125C5.14902 38.8116 5.15091 48.2965 5.14413 30.5467C8.3398 31.7374 11.9533 30.7084 14.0732 27.965C17.2138 32.0297 23.3593 32.0297 26.5001 27.965C29.6408 32.0297 35.7862 32.0297 38.927 27.965C41.0469 30.7084 44.6604 31.7374 47.856 30.5467C47.8493 48.2965 47.8511 38.8116 47.8526 48.125ZM40.5726 23.1553L40.5016 17.7142L38.1431 8.0063C37.4517 5.1575 34.5675 6.63722 34.9096 8.0063L37.3197 17.6494L37.2812 23.1553C37.2812 29.1743 28.1456 29.1743 28.1456 23.1553L28.117 7.9128C28.1146 5.76763 24.8869 5.76763 24.8834 7.9128L24.8544 23.1553C24.8544 29.1743 15.7187 29.1743 15.7187 23.1553L15.7626 17.6728L18.1726 8.02969C18.5146 6.66006 15.6304 5.18247 14.939 8.02969L12.5805 17.7376L12.4275 23.1553C12.4275 29.2142 3.29144 29.2142 3.29144 23.1553L3.31965 17.8312L11.4829 3.4368H41.5172L49.5031 17.1872L49.7087 23.1554C49.7086 29.2142 40.5726 29.2142 40.5726 23.1553Z" fill="#7F3D00"/>
<path fill-rule="evenodd" clip-rule="evenodd" d="M40.1224 34.4429H33.6951C32.8109 34.4429 32.0879 35.1679 32.0879 36.0546V42.4993C32.0879 43.386 32.8108 44.111 33.6951 44.111H40.1224C41.0068 44.111 41.7296 43.386 41.7296 42.4993V36.0546C41.7296 35.1679 41.0068 34.4429 40.1224 34.4429Z" fill="#7F3D00"/>
</g>
<defs>
<clipPath id="clip0_2029_5904">
<rect width="53" height="55" fill="white"/>
</clipPath>
</defs>
</svg>
