<?xml version="1.0" encoding="utf-8"?>
<!-- Generator: Adobe Illustrator 26.0.3, SVG Export Plug-In . SVG Version: 6.00 Build 0)  -->
<svg version="1.0" id="katman_1" xmlns="http://www.w3.org/2000/svg" xmlns:xlink="http://www.w3.org/1999/xlink" x="0px" y="0px"
	 viewBox="0 0 140.9 103" style="enable-background:new 0 0 140.9 103;" xml:space="preserve">
<style type="text/css">
	.st0{fill:#EB2127;}
	.st1{fill:#010101;}
</style>
<g>
	<g>
		<g>
			<g>
				<g>
					<g>
						<path class="st0" d="M111.4,51.5l-7.2,13.2h-9.5l7.3-13.2l-7.3-13.2h9.4L111.4,51.5L111.4,51.5z"/>
						<path class="st0" d="M114.8,51.5l-4.2-7.7l3-5.5h9.5l-7.3,13.2l7.3,13.2h-9.4l-3-5.5L114.8,51.5L114.8,51.5z"/>
					</g>
					<g>
						<path class="st1" d="M28.4,38.3c7.6,0,11.8,3.6,11.8,10c0,3.9-1.5,6.7-4.3,8.3l5.2,7.2v0.9h-8.6l-4.8-6.7h-2.6v6.6h-8V38.3
							H28.4z M28.9,51.6c2.2,0,3.4-1.2,3.4-3.4c0-2.1-1.4-3.2-3.8-3.2h-3.3v6.6H28.9z M43.3,64.7V38.3h19.9V45h-12v3.4h10.1v6.3
							H51.3v3.2h12.3v6.8H43.3z M76.9,38.3c9.4,0,14.7,4.8,14.7,13.2c0,8.5-5.3,13.2-14.7,13.2H66.7V38.3H76.9z M76.9,57.8
							c4.2,0,6.5-2.3,6.5-6.3s-2.4-6.4-6.5-6.4h-2.2v12.7C74.7,57.8,76.9,57.8,76.9,57.8z"/>
					</g>
				</g>
			</g>
		</g>
	</g>
</g>
</svg>
