<svg width="288" height="277" viewBox="0 0 288 277" fill="none" xmlns="http://www.w3.org/2000/svg">
<g clip-path="url(#clip0_1188_92)">
<path d="M442.104 -2.41673H154.707V203.815H442.104V-2.41673Z" fill="#D1E3FF"/>
<path d="M446.92 -2.41673H156.957V203.815H446.92V-2.41673Z" fill="#F3F8FF"/>
<path d="M442.104 203.816H154.707V208.456H442.104V203.816Z" fill="#D1E3FF"/>
<path d="M468.931 203.816H189.505V208.456H468.931V203.816Z" fill="#F3F8FF"/>
<path d="M440.178 6.3306H163.698V195.069H440.178V6.3306Z" fill="#F5FCFF"/>
<path d="M238.94 195.069L278.506 6.3306H328.986L289.42 195.069H238.94Z" fill="white"/>
<path d="M149.648 -2.71283V70.7123H169.094C169.094 70.7123 204.033 47.9442 211.973 1.10754C212.78 -3.64846 209.134 -8 204.305 -8H154.939C152.016 -8 149.648 -5.63268 149.648 -2.71283Z" fill="#D1E3FF"/>
<path d="M149.648 188.42V76.6405H169.094C169.094 76.6405 180.274 99.2041 191.423 125.156C204.285 155.096 182.26 188.42 149.648 188.42Z" fill="#D1E3FF"/>
<path d="M168.522 76.6405H150.363C149.287 76.6405 148.415 75.769 148.415 74.6944V72.6583C148.415 71.5838 149.287 70.7123 150.363 70.7123H168.522C169.598 70.7123 170.47 71.5838 170.47 72.6583V74.6944C170.47 75.769 169.598 76.6405 168.522 76.6405Z" fill="#F3F8FF"/>
<path d="M59.8761 326.545C63.7338 286.618 67.2019 175.091 64.9362 155.066L59.5874 151.169C59.5874 151.169 61.2344 223.993 58.3606 285.165C55.4868 346.336 57.9419 317.455 56.738 326.545H59.8761Z" fill="#D1E3FF"/>
<path d="M74.7949 247.123C85.5736 238.667 107.592 232.653 130.03 232.685C138.839 232.697 103.23 242.522 88.4229 253.364C76.9186 261.786 63.9491 275.955 59.5383 283.818C62.3892 267.272 64.0163 255.578 74.7949 247.123Z" fill="#D1E3FF"/>
<path d="M53.4272 259.628C44.4759 250.821 23.8093 244.047 1.45146 243.282C-7.32728 242.982 26.0704 254.034 38.5327 265.361C48.2144 274.16 58.142 288.736 60.8737 296.728C61.5292 280.142 62.3786 268.436 53.4272 259.628Z" fill="#D1E3FF"/>
<path d="M75.2763 187.477C84.4034 180.317 103.049 175.225 122.047 175.251C129.506 175.262 99.3545 183.581 86.8143 192.761C77.073 199.894 66.0912 211.891 62.3557 218.55C64.7727 204.538 66.1492 194.639 75.2763 187.477Z" fill="#D1E3FF"/>
<path d="M57.1826 198.067C49.6031 190.609 32.1037 184.875 13.1712 184.226C5.73846 183.971 34.018 193.331 44.5706 202.922C52.7687 210.374 61.1747 222.715 63.4878 229.483C64.0424 215.438 64.7635 205.524 57.1826 198.067Z" fill="#D1E3FF"/>
<path d="M61.5765 143.512C56.1833 137.441 43.1191 132.263 28.686 130.933C23.0194 130.411 44.129 138.852 51.6778 146.692C57.5431 152.784 63.3044 162.647 64.71 167.954C65.8864 157.175 66.9681 149.582 61.5765 143.512Z" fill="#D1E3FF"/>
<path d="M65.1089 147.55C69.0048 142.313 78.2678 137.765 88.4185 136.492C92.4046 135.993 77.4367 143.403 71.9947 150.174C67.7673 155.434 63.5414 163.915 62.4566 168.462C61.8318 159.265 61.213 152.787 65.1089 147.55Z" fill="#D1E3FF"/>
<path d="M76.4174 99.4238H74.8896V129.451H76.4174V99.4238Z" fill="#407BFF"/>
<path d="M76.4174 137.75H74.8896V147.385H76.4174V137.75Z" fill="#407BFF"/>
<path d="M230.505 202.699H101.096C89.6239 202.699 80.2371 193.321 80.2371 181.86V89.6066C80.2371 78.1454 89.6239 68.7677 101.096 68.7677H230.505C241.978 68.7677 251.364 78.1454 251.364 89.6066V181.862C251.364 193.323 241.978 202.699 230.505 202.699Z" fill="#407BFF"/>
<path d="M78.1896 68.2961C77.7985 68.2961 77.4074 68.1465 77.1095 67.8489L65.3118 56.0627C64.7144 55.4659 64.7144 54.5012 65.3118 53.9044C65.9092 53.3076 66.8747 53.3076 67.4721 53.9044L79.2698 65.6907C79.8672 66.2875 79.8672 67.2521 79.2698 67.8489C78.9719 68.1465 78.5807 68.2961 78.1896 68.2961Z" fill="#407BFF"/>
<path d="M85.7677 65.0511C85.0497 65.0511 84.4095 64.5429 84.2689 63.8118L82.1041 52.5536C81.9452 51.7264 82.4875 50.9266 83.3156 50.7678C84.1452 50.6091 84.9442 51.151 85.1031 51.9782L87.268 63.2364C87.4284 64.0636 86.8845 64.8634 86.0565 65.0221C85.9602 65.042 85.8624 65.0511 85.7677 65.0511Z" fill="#407BFF"/>
<path d="M74.9432 75.8666C74.8469 75.8666 74.7507 75.8575 74.6544 75.8392L63.3854 73.6764C62.5573 73.5176 62.0134 72.7178 62.1738 71.8906C62.3327 71.0633 63.1379 70.5245 63.9613 70.6802L75.2304 72.843C76.0585 73.0017 76.6024 73.8015 76.4419 74.6288C76.3014 75.3599 75.6612 75.8666 74.9432 75.8666Z" fill="#407BFF"/>
<path d="M248.28 129.648L285.789 118.158L248.28 157.885V129.648Z" fill="#407BFF"/>
<path d="M202.955 159.654H128.642C128.642 155.686 130.216 151.885 133.027 149.092L134.509 147.596C136.923 145.2 138.267 141.933 138.267 138.53V121.267C138.267 105.744 151.147 93.2285 166.807 93.778C169.114 93.8696 171.329 94.2359 173.453 94.8617C172.628 97.0443 172.169 99.4254 172.169 101.898C172.169 112.949 181.138 121.923 192.214 121.923C192.596 121.923 192.963 121.908 193.329 121.893C193.329 121.908 193.329 121.908 193.329 121.923V138.53C193.329 141.933 194.689 145.2 197.088 147.596L198.57 149.092C199.975 150.496 201.075 152.144 201.824 153.93C202.557 155.731 202.955 157.67 202.955 159.654Z" fill="white"/>
<path d="M180.487 163.673C180.122 171.672 173.395 177.99 165.242 177.697C157.62 177.44 151.607 171.196 151.113 163.673H180.487Z" fill="white"/>
<path d="M192.21 116.886C200.495 116.886 207.213 110.176 207.213 101.898C207.213 93.6201 200.495 86.9096 192.21 86.9096C183.924 86.9096 177.207 93.6201 177.207 101.898C177.207 110.176 183.924 116.886 192.21 116.886Z" fill="#FF5652"/>
<path d="M195.189 94.677V109.755H191.018V99.8741C190.343 100.387 189.69 100.801 189.059 101.118C188.428 101.436 187.637 101.739 186.685 102.028V98.65C188.089 98.1982 189.178 97.6548 189.955 97.0214C190.731 96.388 191.337 95.605 191.776 94.6755H195.189V94.677Z" fill="white"/>
</g>
<defs>
<clipPath id="clip0_1188_92">
<rect width="288" height="277" fill="white"/>
</clipPath>
</defs>
</svg>
