<svg width="301" height="285" viewBox="0 0 301 285" fill="none" xmlns="http://www.w3.org/2000/svg">
<mask id="mask0_1588_6830" style="mask-type:alpha" maskUnits="userSpaceOnUse" x="0" y="6" width="295" height="273">
<rect y="6" width="295" height="273" rx="5" fill="white"/>
</mask>
<g mask="url(#mask0_1588_6830)">
<g clip-path="url(#clip0_1588_6830)">
<path d="M449.104 -0.416504H161.707V205.815H449.104V-0.416504Z" fill="#FFD9BD"/>
<path d="M453.92 -0.416504H163.957V205.815H453.92V-0.416504Z" fill="#F3F8FF"/>
<path d="M449.104 205.817H161.707V210.457H449.104V205.817Z" fill="#FFD9BD"/>
<path d="M475.931 205.817H196.505V210.457H475.931V205.817Z" fill="#F3F8FF"/>
<path d="M447.178 8.33105H170.698V197.07H447.178V8.33105Z" fill="#F5FCFF"/>
<path d="M245.94 197.07L285.506 8.33105H335.986L296.42 197.07H245.94Z" fill="white"/>
<path d="M156.648 -0.712831V72.7123H176.094C176.094 72.7123 211.033 49.9442 218.973 3.10754C219.78 -1.64846 216.135 -6 211.305 -6H161.939C159.016 -6 156.648 -3.63268 156.648 -0.712831Z" fill="#FFD9BD"/>
<path d="M156.648 190.421V78.6406H176.094C176.094 78.6406 187.274 101.204 198.423 127.156C211.285 157.096 189.261 190.421 156.648 190.421Z" fill="#FFD9BD"/>
<path d="M175.523 78.6406H157.363C156.288 78.6406 155.415 77.7691 155.415 76.6946V74.6585C155.415 73.5839 156.288 72.7124 157.363 72.7124H175.523C176.598 72.7124 177.471 73.5839 177.471 74.6585V76.6946C177.471 77.7691 176.598 78.6406 175.523 78.6406Z" fill="#F3F8FF"/>
<path d="M66.8761 328.545C70.7338 288.618 74.2019 177.091 71.9362 157.066L66.5874 153.169C66.5874 153.169 68.2344 225.993 65.3606 287.164C62.4868 348.336 64.9419 319.455 63.738 328.545H66.8761Z" fill="#FFD9BD"/>
<path d="M81.7951 249.123C92.5737 240.667 114.592 234.653 137.03 234.685C145.839 234.697 110.23 244.522 95.423 255.364C83.9187 263.786 70.9492 277.955 66.5385 285.818C69.3893 269.272 71.0164 257.578 81.7951 249.123Z" fill="#FFD9BD"/>
<path d="M60.4272 261.628C51.4759 252.821 30.8093 246.047 8.45146 245.282C-0.32728 244.982 33.0704 256.034 45.5327 267.361C55.2144 276.16 65.142 290.736 67.8737 298.728C68.5292 282.141 69.3786 270.436 60.4272 261.628Z" fill="#FFD9BD"/>
<path d="M82.2763 189.477C91.4034 182.317 110.049 177.226 129.047 177.252C136.506 177.262 106.354 185.581 93.8143 194.762C84.073 201.894 73.0912 213.891 69.3557 220.55C71.7727 206.539 73.1492 196.639 82.2763 189.477Z" fill="#FFD9BD"/>
<path d="M64.1826 200.067C56.6031 192.609 39.1037 186.875 20.1712 186.226C12.7385 185.971 41.018 195.331 51.5706 204.922C59.7687 212.374 68.1747 224.715 70.4878 231.483C71.0424 217.438 71.7635 207.525 64.1826 200.067Z" fill="#FFD9BD"/>
<path d="M68.5766 145.512C63.1835 139.441 50.1192 134.263 35.6861 132.933C30.0195 132.411 51.1291 140.852 58.678 148.692C64.5432 154.784 70.3045 164.647 71.7101 169.954C72.8865 159.175 73.9682 151.582 68.5766 145.512Z" fill="#FFD9BD"/>
<path d="M72.1088 149.55C76.0047 144.314 85.2677 139.765 95.4184 138.492C99.4045 137.993 84.4366 145.403 78.9946 152.174C74.7671 157.434 70.5412 165.916 69.4565 170.462C68.8316 161.265 68.2129 154.787 72.1088 149.55Z" fill="#FFD9BD"/>
<path d="M83.4174 101.424H81.8896V131.451H83.4174V101.424Z" fill="#FF7E06"/>
<path d="M83.4174 139.75H81.8896V149.385H83.4174V139.75Z" fill="#FF7E06"/>
<path d="M237.505 204.699H108.096C96.6239 204.699 87.2371 195.321 87.2371 183.86V91.6064C87.2371 80.1453 96.6239 70.7676 108.096 70.7676H237.505C248.978 70.7676 258.364 80.1453 258.364 91.6064V183.862C258.364 195.323 248.978 204.699 237.505 204.699Z" fill="#FF7E06"/>
<path d="M85.1898 70.2963C84.7986 70.2963 84.4075 70.1467 84.1096 69.8491L72.3119 58.0628C71.7145 57.4661 71.7145 56.5014 72.3119 55.9046C72.9093 55.3078 73.8749 55.3078 74.4722 55.9046L86.2699 67.6909C86.8673 68.2877 86.8673 69.2523 86.2699 69.8491C85.972 70.1467 85.5809 70.2963 85.1898 70.2963Z" fill="#FF7E06"/>
<path d="M92.7676 67.0511C92.0495 67.0511 91.4094 66.5429 91.2688 65.8118L89.1039 54.5536C88.945 53.7264 89.4874 52.9266 90.3155 52.7678C91.1451 52.6091 91.9441 53.151 92.103 53.9782L94.2679 65.2364C94.4283 66.0636 93.8844 66.8634 93.0563 67.0221C92.9601 67.042 92.8623 67.0511 92.7676 67.0511Z" fill="#FF7E06"/>
<path d="M81.9432 77.8665C81.8469 77.8665 81.7507 77.8574 81.6544 77.8391L70.3854 75.6763C69.5573 75.5175 69.0134 74.7177 69.1738 73.8905C69.3327 73.0632 70.1379 72.5244 70.9613 72.6801L82.2304 74.8429C83.0585 75.0016 83.6024 75.8014 83.4419 76.6287C83.3014 77.3598 82.6612 77.8665 81.9432 77.8665Z" fill="#FF7E06"/>
<path d="M255.28 131.648L292.789 120.158L255.28 159.885V131.648Z" fill="#FF7E06"/>
<path d="M209.955 161.654H135.642C135.642 157.686 137.216 153.885 140.027 151.092L141.509 149.596C143.923 147.2 145.267 143.934 145.267 140.53V123.267C145.267 107.745 158.147 95.2287 173.807 95.7782C176.114 95.8697 178.329 96.2361 180.453 96.8619C179.628 99.0445 179.169 101.426 179.169 103.898C179.169 114.949 188.138 123.923 199.214 123.923C199.596 123.923 199.963 123.908 200.329 123.893C200.329 123.908 200.329 123.908 200.329 123.923V140.53C200.329 143.934 201.689 147.2 204.088 149.596L205.57 151.092C206.975 152.496 208.075 154.145 208.824 155.93C209.557 157.731 209.955 159.67 209.955 161.654Z" fill="white"/>
<path d="M187.487 165.673C187.122 173.672 180.395 179.99 172.242 179.697C164.62 179.44 158.607 173.196 158.113 165.673H187.487Z" fill="white"/>
<path d="M199.21 118.887C207.495 118.887 214.213 112.176 214.213 103.898C214.213 95.6202 207.495 88.9097 199.21 88.9097C190.924 88.9097 184.207 95.6202 184.207 103.898C184.207 112.176 190.924 118.887 199.21 118.887Z" fill="#FF0904"/>
<path d="M202.189 96.6768V111.755H198.018V101.874C197.342 102.387 196.69 102.8 196.059 103.118C195.428 103.435 194.637 103.739 193.685 104.028V100.65C195.089 100.198 196.178 99.6547 196.954 99.0212C197.731 98.3878 198.337 97.6048 198.776 96.6753H202.189V96.6768Z" fill="white"/>
</g>
</g>
<defs>
<clipPath id="clip0_1588_6830">
<rect width="468.931" height="356.72" fill="white" transform="translate(7 -1.88428)"/>
</clipPath>
</defs>
</svg>
